<mxfile host="drawio-plugin" modified="2024-11-20T13:23:16.377Z" agent="5.0 (X11; Linux x86_64) AppleWebKit/537.36 (KHTML, like Gecko) Chrome/104.0.5112.102 Safari/537.36" etag="ncVKWfgtfkLifjYmKa-n" version="20.5.3" type="embed"><diagram name="Página-1" id="-CO6_jrW9DA6pvJ7dElY"><mxGraphModel dx="1101" dy="1614" grid="1" gridSize="10" guides="1" tooltips="1" connect="1" arrows="1" fold="1" page="1" pageScale="1" pageWidth="827" pageHeight="1169" math="0" shadow="0"><root><mxCell id="0"/><mxCell id="1" parent="0"/><mxCell id="1ZX_MkZ9JSZabqy4LFC7-55" value="Recipe Package" style="shape=folder;fontStyle=1;tabWidth=110;tabHeight=30;tabPosition=left;html=1;boundedLbl=1;labelInHeader=1;container=1;collapsible=0;" parent="1" vertex="1"><mxGeometry x="290" y="-170" width="780" height="238.38233834095362" as="geometry"/></mxCell><mxCell id="1ZX_MkZ9JSZabqy4LFC7-56" value="" style="html=1;strokeColor=none;resizeWidth=1;resizeHeight=1;fillColor=none;part=1;connectable=0;allowArrows=0;deletable=0;" parent="1ZX_MkZ9JSZabqy4LFC7-55" vertex="1"><mxGeometry width="780" height="97.97517962116264" relative="1" as="geometry"><mxPoint y="30" as="offset"/></mxGeometry></mxCell><mxCell id="1ZX_MkZ9JSZabqy4LFC7-2" value="Create&lt;br&gt;recipe" style="ellipse;whiteSpace=wrap;html=1;verticalAlign=middle;fillColor=#fa6800;strokeColor=#C73500;fontColor=#000000;" parent="1ZX_MkZ9JSZabqy4LFC7-55" vertex="1"><mxGeometry x="20" y="39.19007184846505" width="80" height="78.3801436969301" as="geometry"/></mxCell><mxCell id="1ZX_MkZ9JSZabqy4LFC7-23" value="Update&lt;br&gt;recipe" style="ellipse;whiteSpace=wrap;html=1;verticalAlign=middle;" parent="1ZX_MkZ9JSZabqy4LFC7-55" vertex="1"><mxGeometry x="124" y="39.19007184846505" width="80" height="78.3801436969301" as="geometry"/></mxCell><mxCell id="1ZX_MkZ9JSZabqy4LFC7-25" value="Delete&lt;br&gt;recipe" style="ellipse;whiteSpace=wrap;html=1;verticalAlign=middle;" parent="1ZX_MkZ9JSZabqy4LFC7-55" vertex="1"><mxGeometry x="220" y="39.19007184846505" width="80" height="78.3801436969301" as="geometry"/></mxCell><mxCell id="1ZX_MkZ9JSZabqy4LFC7-27" value="Show recipe" style="ellipse;whiteSpace=wrap;html=1;verticalAlign=middle;direction=south;" parent="1ZX_MkZ9JSZabqy4LFC7-55" vertex="1"><mxGeometry x="360" y="43.442194644023516" width="80" height="78.3801436969301" as="geometry"/></mxCell><mxCell id="1ZX_MkZ9JSZabqy4LFC7-7" value="List possible recipes from ingredient&lt;br&gt;names" style="ellipse;whiteSpace=wrap;html=1;verticalAlign=middle;fillColor=#fa6800;strokeColor=#C73500;fontColor=#000000;" parent="1ZX_MkZ9JSZabqy4LFC7-55" vertex="1"><mxGeometry x="480" y="40" width="90" height="86.07" as="geometry"/></mxCell><mxCell id="1ZX_MkZ9JSZabqy4LFC7-16" value="List possible recipes from&amp;nbsp;pantry" style="ellipse;whiteSpace=wrap;html=1;verticalAlign=middle;" parent="1ZX_MkZ9JSZabqy4LFC7-55" vertex="1"><mxGeometry x="660" y="43.442194644023516" width="81.5" height="82.63226649248858" as="geometry"/></mxCell><mxCell id="1ZX_MkZ9JSZabqy4LFC7-39" value="" style="edgeStyle=orthogonalEdgeStyle;rounded=0;orthogonalLoop=1;jettySize=auto;html=1;dashed=1;" parent="1ZX_MkZ9JSZabqy4LFC7-55" source="1ZX_MkZ9JSZabqy4LFC7-16" target="1ZX_MkZ9JSZabqy4LFC7-7" edge="1"><mxGeometry relative="1" as="geometry"/></mxCell><mxCell id="2" value="List&lt;br&gt;maximum recipes from real&lt;br&gt;ingredients" style="ellipse;whiteSpace=wrap;html=1;verticalAlign=middle;fillColor=#fa6800;strokeColor=#C73500;fontColor=#000000;" vertex="1" parent="1ZX_MkZ9JSZabqy4LFC7-55"><mxGeometry x="480" y="140" width="90" height="82.63" as="geometry"/></mxCell><mxCell id="5" style="edgeStyle=orthogonalEdgeStyle;rounded=0;orthogonalLoop=1;jettySize=auto;html=1;dashed=1;exitX=0.002;exitY=0.443;exitDx=0;exitDy=0;exitPerimeter=0;entryX=1;entryY=0.5;entryDx=0;entryDy=0;" edge="1" parent="1ZX_MkZ9JSZabqy4LFC7-55" source="4" target="2"><mxGeometry relative="1" as="geometry"><Array as="points"><mxPoint x="660" y="181"/></Array></mxGeometry></mxCell><mxCell id="4" value="List maximum recipes from&amp;nbsp;pantry" style="ellipse;whiteSpace=wrap;html=1;verticalAlign=middle;" vertex="1" parent="1ZX_MkZ9JSZabqy4LFC7-55"><mxGeometry x="660" y="139.9944611365121" width="81.5" height="82.63226649248858" as="geometry"/></mxCell><mxCell id="1ZX_MkZ9JSZabqy4LFC7-57" value="Menu Package" style="shape=folder;fontStyle=1;tabWidth=130;tabHeight=30;tabPosition=left;html=1;boundedLbl=1;labelInHeader=1;container=1;collapsible=0;" parent="1" vertex="1"><mxGeometry x="290" y="90" width="580" height="160" as="geometry"/></mxCell><mxCell id="1ZX_MkZ9JSZabqy4LFC7-58" value="" style="html=1;strokeColor=none;resizeWidth=1;resizeHeight=1;fillColor=none;part=1;connectable=0;allowArrows=0;deletable=0;" parent="1ZX_MkZ9JSZabqy4LFC7-57" vertex="1"><mxGeometry width="442.63157894736844" height="112" relative="1" as="geometry"><mxPoint y="30" as="offset"/></mxGeometry></mxCell><mxCell id="1ZX_MkZ9JSZabqy4LFC7-5" value="Create menu" style="ellipse;whiteSpace=wrap;html=1;verticalAlign=middle;" parent="1ZX_MkZ9JSZabqy4LFC7-57" vertex="1"><mxGeometry x="30" y="45.71" width="82.63" height="91.43" as="geometry"/></mxCell><mxCell id="1ZX_MkZ9JSZabqy4LFC7-33" value="Update&lt;br&gt;menu" style="ellipse;whiteSpace=wrap;html=1;verticalAlign=middle;" parent="1ZX_MkZ9JSZabqy4LFC7-57" vertex="1"><mxGeometry x="170" y="45.71" width="85.79" height="91.43" as="geometry"/></mxCell><mxCell id="1ZX_MkZ9JSZabqy4LFC7-35" value="Delete&lt;br&gt;menu" style="ellipse;whiteSpace=wrap;html=1;verticalAlign=middle;" parent="1ZX_MkZ9JSZabqy4LFC7-57" vertex="1"><mxGeometry x="310" y="45.71" width="91.32" height="91.43" as="geometry"/></mxCell><mxCell id="1ZX_MkZ9JSZabqy4LFC7-30" value="Show menu" style="ellipse;whiteSpace=wrap;html=1;verticalAlign=middle;" parent="1ZX_MkZ9JSZabqy4LFC7-57" vertex="1"><mxGeometry x="460" y="45.71" width="87.11" height="91.43" as="geometry"/></mxCell><mxCell id="1ZX_MkZ9JSZabqy4LFC7-41" value="Food&amp;nbsp;Package" style="shape=folder;fontStyle=1;tabWidth=110;tabHeight=30;tabPosition=left;html=1;boundedLbl=1;labelInHeader=1;container=1;collapsible=0;" parent="1" vertex="1"><mxGeometry x="290" y="280" width="620" height="245" as="geometry"/></mxCell><mxCell id="1ZX_MkZ9JSZabqy4LFC7-42" value="" style="html=1;strokeColor=none;resizeWidth=1;resizeHeight=1;fillColor=none;part=1;connectable=0;allowArrows=0;deletable=0;" parent="1ZX_MkZ9JSZabqy4LFC7-41" vertex="1"><mxGeometry width="600.3174603174602" height="190" relative="1" as="geometry"><mxPoint y="30" as="offset"/></mxGeometry></mxCell><mxCell id="1ZX_MkZ9JSZabqy4LFC7-19" value="Add food" style="ellipse;whiteSpace=wrap;html=1;verticalAlign=middle;" parent="1ZX_MkZ9JSZabqy4LFC7-41" vertex="1"><mxGeometry x="37.57396825396825" y="45" width="70.67999999999999" height="80" as="geometry"/></mxCell><mxCell id="1ZX_MkZ9JSZabqy4LFC7-20" value="Update food details" style="ellipse;whiteSpace=wrap;html=1;verticalAlign=middle;" parent="1ZX_MkZ9JSZabqy4LFC7-41" vertex="1"><mxGeometry x="37.57396825396825" y="145" width="80.52126984126983" height="80" as="geometry"/></mxCell><mxCell id="1ZX_MkZ9JSZabqy4LFC7-21" value="Throw away food" style="ellipse;whiteSpace=wrap;html=1;verticalAlign=middle;" parent="1ZX_MkZ9JSZabqy4LFC7-41" vertex="1"><mxGeometry x="305.0806349206349" y="46" width="78.73015873015872" height="85" as="geometry"/></mxCell><mxCell id="1ZX_MkZ9JSZabqy4LFC7-22" value="List all foods" style="ellipse;whiteSpace=wrap;html=1;verticalAlign=middle;" parent="1ZX_MkZ9JSZabqy4LFC7-41" vertex="1"><mxGeometry x="305.07936507936506" y="155" width="88.57142857142857" height="75" as="geometry"/></mxCell><mxCell id="1ZX_MkZ9JSZabqy4LFC7-13" value="List missing foods from recipe" style="ellipse;whiteSpace=wrap;html=1;verticalAlign=middle;fillColor=#fa6800;strokeColor=#C73500;fontColor=#000000;" parent="1ZX_MkZ9JSZabqy4LFC7-41" vertex="1"><mxGeometry x="182.06349206349205" y="35" width="89.46698412698412" height="80" as="geometry"/></mxCell><mxCell id="1ZX_MkZ9JSZabqy4LFC7-62" value="" style="edgeStyle=orthogonalEdgeStyle;rounded=0;orthogonalLoop=1;jettySize=auto;html=1;dashed=1;" parent="1ZX_MkZ9JSZabqy4LFC7-41" source="1ZX_MkZ9JSZabqy4LFC7-15" target="1ZX_MkZ9JSZabqy4LFC7-13" edge="1"><mxGeometry relative="1" as="geometry"/></mxCell><mxCell id="1ZX_MkZ9JSZabqy4LFC7-15" value="List missing foods from menu" style="ellipse;whiteSpace=wrap;html=1;verticalAlign=middle;" parent="1ZX_MkZ9JSZabqy4LFC7-41" vertex="1"><mxGeometry x="186.984126984127" y="155" width="79.62571428571428" height="80" as="geometry"/></mxCell><mxCell id="uPa43uA3AVw1JParbl73-2" value="Show food details" style="ellipse;whiteSpace=wrap;html=1;verticalAlign=middle;" parent="1ZX_MkZ9JSZabqy4LFC7-41" vertex="1"><mxGeometry x="419.999365079365" y="155" width="88.57142857142857" height="75" as="geometry"/></mxCell><mxCell id="1ZX_MkZ9JSZabqy4LFC7-3" value="" style="edgeStyle=orthogonalEdgeStyle;rounded=0;orthogonalLoop=1;jettySize=auto;html=1;" parent="1" source="1ZX_MkZ9JSZabqy4LFC7-1" target="1ZX_MkZ9JSZabqy4LFC7-55" edge="1"><mxGeometry relative="1" as="geometry"><mxPoint x="160" y="150" as="sourcePoint"/><Array as="points"><mxPoint x="250" y="160"/><mxPoint x="250" y="-80"/></Array></mxGeometry></mxCell><mxCell id="1ZX_MkZ9JSZabqy4LFC7-17" style="edgeStyle=orthogonalEdgeStyle;rounded=0;orthogonalLoop=1;jettySize=auto;html=1;" parent="1" source="1ZX_MkZ9JSZabqy4LFC7-1" target="1ZX_MkZ9JSZabqy4LFC7-57" edge="1"><mxGeometry relative="1" as="geometry"><Array as="points"><mxPoint x="270" y="160"/><mxPoint x="270" y="160"/></Array></mxGeometry></mxCell><mxCell id="kOWxkiBDby65x2myN2eD-6" style="edgeStyle=orthogonalEdgeStyle;rounded=0;orthogonalLoop=1;jettySize=auto;html=1;entryX=0;entryY=0;entryDx=0;entryDy=137.5;entryPerimeter=0;" parent="1" source="1ZX_MkZ9JSZabqy4LFC7-1" target="1ZX_MkZ9JSZabqy4LFC7-41" edge="1"><mxGeometry relative="1" as="geometry"><Array as="points"><mxPoint x="250" y="160"/><mxPoint x="250" y="418"/></Array></mxGeometry></mxCell><mxCell id="1ZX_MkZ9JSZabqy4LFC7-1" value="Chef / Administrator" style="shape=umlActor;verticalLabelPosition=bottom;verticalAlign=top;html=1;outlineConnect=0;" parent="1" vertex="1"><mxGeometry x="100" y="140" width="30" height="60" as="geometry"/></mxCell><mxCell id="1ZX_MkZ9JSZabqy4LFC7-44" style="edgeStyle=orthogonalEdgeStyle;rounded=0;orthogonalLoop=1;jettySize=auto;html=1;entryX=1.005;entryY=0.608;entryDx=0;entryDy=0;entryPerimeter=0;" parent="1" source="1ZX_MkZ9JSZabqy4LFC7-4" target="1ZX_MkZ9JSZabqy4LFC7-41" edge="1"><mxGeometry relative="1" as="geometry"><mxPoint x="260" y="370" as="sourcePoint"/><Array as="points"><mxPoint x="1175" y="429"/></Array></mxGeometry></mxCell><mxCell id="kOWxkiBDby65x2myN2eD-2" style="edgeStyle=orthogonalEdgeStyle;rounded=0;orthogonalLoop=1;jettySize=auto;html=1;" parent="1" source="1ZX_MkZ9JSZabqy4LFC7-4" target="1ZX_MkZ9JSZabqy4LFC7-27" edge="1"><mxGeometry relative="1" as="geometry"><Array as="points"><mxPoint x="1175" y="-160"/><mxPoint x="690" y="-160"/></Array></mxGeometry></mxCell><mxCell id="kOWxkiBDby65x2myN2eD-3" style="edgeStyle=orthogonalEdgeStyle;rounded=0;orthogonalLoop=1;jettySize=auto;html=1;" parent="1" source="1ZX_MkZ9JSZabqy4LFC7-4" target="1ZX_MkZ9JSZabqy4LFC7-7" edge="1"><mxGeometry relative="1" as="geometry"><Array as="points"><mxPoint x="1175" y="-160"/><mxPoint x="810" y="-160"/></Array></mxGeometry></mxCell><mxCell id="kOWxkiBDby65x2myN2eD-4" style="edgeStyle=orthogonalEdgeStyle;rounded=0;orthogonalLoop=1;jettySize=auto;html=1;" parent="1" source="1ZX_MkZ9JSZabqy4LFC7-4" target="1ZX_MkZ9JSZabqy4LFC7-16" edge="1"><mxGeometry relative="1" as="geometry"><Array as="points"><mxPoint x="1175" y="-160"/><mxPoint x="991" y="-160"/></Array></mxGeometry></mxCell><mxCell id="kOWxkiBDby65x2myN2eD-7" style="edgeStyle=orthogonalEdgeStyle;rounded=0;orthogonalLoop=1;jettySize=auto;html=1;" parent="1" source="1ZX_MkZ9JSZabqy4LFC7-4" target="1ZX_MkZ9JSZabqy4LFC7-30" edge="1"><mxGeometry relative="1" as="geometry"><Array as="points"><mxPoint x="1040" y="160"/><mxPoint x="1040" y="160"/></Array></mxGeometry></mxCell><mxCell id="7" style="edgeStyle=orthogonalEdgeStyle;rounded=0;orthogonalLoop=1;jettySize=auto;html=1;entryX=1;entryY=0.5;entryDx=0;entryDy=0;" edge="1" parent="1" source="1ZX_MkZ9JSZabqy4LFC7-4" target="4"><mxGeometry relative="1" as="geometry"><Array as="points"><mxPoint x="1175" y="11"/></Array></mxGeometry></mxCell><mxCell id="1ZX_MkZ9JSZabqy4LFC7-4" value="Cook / User" style="shape=umlActor;verticalLabelPosition=bottom;verticalAlign=top;html=1;outlineConnect=0;" parent="1" vertex="1"><mxGeometry x="1160" y="130" width="30" height="60" as="geometry"/></mxCell></root></mxGraphModel></diagram></mxfile>